<svg xmlns="http://www.w3.org/2000/svg" width="15" height="15" viewBox="0 0 15 15">
    <path fill="#E48B09" fill-rule="nonzero" d="M7.031 9.873v-7.06c0-.137.044-.25.132-.337a.456.456 0 0 1 .337-.132c.137 0 .249.044.337.132.088.088.132.2.132.337v7.06H7.03zm0 .923h.938v.879H7.03v-.88zm-4.834 2.007C.732 11.338 0 9.57 0 7.5s.732-3.838 2.197-5.303C3.662.732 5.43 0 7.5 0s3.838.732 5.303 2.197C14.268 3.662 15 5.43 15 7.5s-.732 3.838-2.197 5.303C11.338 14.268 9.57 15 7.5 15s-3.838-.732-5.303-2.197zm9.947-.66c1.289-1.289 1.933-2.836 1.933-4.643s-.644-3.352-1.933-4.636C10.854 1.58 9.307.938 7.5.938s-3.352.642-4.636 1.926C1.58 4.148.938 5.694.938 7.5c0 1.807.642 3.352 1.926 4.636 1.284 1.284 2.83 1.927 4.636 1.927 1.807 0 3.354-.64 4.644-1.92z"/>
</svg>
