<?xml version="1.0" encoding="UTF-8"?>
<svg width="15px" height="12px" viewBox="0 0 15 12" version="1.1" xmlns="http://www.w3.org/2000/svg" xmlns:xlink="http://www.w3.org/1999/xlink">
    <!-- Generator: Sketch 59.1 (86144) - https://sketch.com -->
    <title>sign-out</title>
    <desc>Created with Sketch.</desc>
    <g id="Version-1" stroke="none" stroke-width="1" fill="none" fill-rule="evenodd">
        <g id="Report-Issue" transform="translate(-24.000000, -667.000000)" fill="#999999" fill-rule="nonzero">
            <g id="sign-out" transform="translate(24.000000, 667.000000)">
                <path d="M6.12245659,11.1 C6.12245659,11.125 6.12564537,11.1875 6.13202294,11.2874999 C6.13840051,11.3874999 6.1399949,11.4703123 6.13680611,11.5359373 C6.13361733,11.6015622 6.124051,11.6749997 6.1081071,11.7562498 C6.0921632,11.8374999 6.06027534,11.8984374 6.01244355,11.9390624 C5.96461186,11.9796875 5.89924187,12 5.81633357,12 L2.75510658,12 C1.99617603,12 1.34725896,11.7359375 0.808355377,11.2078124 C0.269451792,10.6796873 0,10.0437491 0,9.29999776 L0,2.70000224 C0,1.95625091 0.269451792,1.3203127 0.808355377,0.792187623 C1.34725896,0.264062541 1.99617603,0 2.75510658,0 L5.81633357,0 C5.89924187,0 5.97098939,0.0296874825 6.03157614,0.0890624475 C6.09216289,0.148437412 6.12245627,0.21874993 6.12245627,0.3 C6.12245627,0.325000019 6.12564505,0.387499972 6.13202262,0.48749986 C6.13840051,0.58749986 6.13999458,0.670312331 6.13680579,0.735937272 C6.13361701,0.801562214 6.12405068,0.87499972 6.10810678,0.95624979 C6.09216288,1.03749986 6.06027502,1.09843741 6.01244323,1.13906245 C5.96461154,1.17968748 5.89924155,1.2 5.81633325,1.2 L2.75510626,1.2 C2.33418759,1.2 1.97385568,1.34687501 1.67411051,1.64062504 C1.37436535,1.93437506 1.22449276,2.28750005 1.22449276,2.7 L1.22449276,9.29999552 C1.22449276,9.71249547 1.37436535,10.0656205 1.67411051,10.3593705 C1.97385568,10.6531205 2.33418759,10.7999955 2.75510626,10.7999955 L5.51021283,10.7999955 C5.5165904,10.7999955 5.55166702,10.7999955 5.61544269,10.7999955 C5.6792184,10.7999955 5.72067255,10.7999955 5.73980514,10.7999955 C5.75893782,10.7999955 5.79560872,10.8031205 5.84981786,10.8093705 C5.90402708,10.8156206 5.94069799,10.8249956 5.95983058,10.8374955 C5.97896326,10.8499955 6.00447358,10.867183 6.03636154,10.8890581 C6.06824936,10.9109331 6.09057091,10.9390582 6.10332621,10.9734333 C6.11608131,11.0078083 6.12245886,11.0499958 6.12245886,11.0999956 L6.12245659,11.1 Z M14.8182398,5.57812265 C14.9394133,5.69687258 15,5.83749762 15,5.99999776 C15,6.1624979 14.9394133,6.30312293 14.8182398,6.42187286 L9.61415273,11.521874 C9.49297923,11.6406239 9.34948418,11.6999989 9.18366758,11.6999989 C9.01785097,11.6999989 8.87435592,11.6406239 8.75318242,11.521874 C8.63200893,11.4031241 8.57142218,11.262499 8.57142218,11.0999989 L8.57142218,8.39999664 L4.28570211,8.39999664 C4.1198855,8.39999664 3.97639045,8.34062167 3.85521695,8.22187174 C3.73404346,8.10312181 3.67345671,7.96249678 3.67345671,7.79999328 L3.67345671,4.19999552 C3.67345671,4.03749538 3.73404346,3.89687034 3.85521695,3.77812041 C3.97639045,3.65937048 4.1198855,3.59999552 4.28570211,3.59999552 L8.57142218,3.59999552 L8.57142218,0.89999328 C8.57142218,0.73749314 8.63200893,0.596868105 8.75318242,0.478118175 C8.87435592,0.359368245 9.01785097,0.29999328 9.18366758,0.29999328 C9.34948418,0.29999328 9.49297923,0.359368245 9.61415273,0.478118175 L14.8182398,5.57812265 Z" id="Shape"></path>
            </g>
        </g>
    </g>
</svg>