<svg xmlns="http://www.w3.org/2000/svg" width="15" height="11" viewBox="0 0 15 11">
    <g fill="none" fill-rule="evenodd">
        <path d="M-1-3h17v17H-1z"/>
        <path fill="#000" fill-rule="nonzero" d="M7.5 0C4.09 0 1.18 2.28 0 5.5 1.18 8.72 4.09 11 7.5 11c3.412 0 6.32-2.28 7.5-5.5C13.82 2.28 10.912 0 7.5 0zm0 9.167c-1.882 0-3.41-1.643-3.41-3.667S5.619 1.833 7.5 1.833c1.882 0 3.41 1.643 3.41 3.667S9.381 9.167 7.5 9.167zm0-5.867c-1.128 0-2.045.986-2.045 2.2 0 1.214.917 2.2 2.045 2.2s2.045-.986 2.045-2.2c0-1.214-.917-2.2-2.045-2.2z"/>
    </g>
</svg>
