<svg xmlns="http://www.w3.org/2000/svg" width="15" height="13" viewBox="0 0 15 13">
    <path fill="#000" fill-rule="nonzero" d="M7.503 2.737a3.417 3.417 0 0 1 3.411 3.42c0 .446-.089.863-.246 1.253l1.992 1.998A8.085 8.085 0 0 0 15 6.158c-1.18-3.004-4.093-5.132-7.503-5.132-.955 0-1.87.171-2.715.48l1.473 1.477a3.302 3.302 0 0 1 1.248-.246zM.683.869l1.554 1.56.314.315A8.074 8.074 0 0 0 0 6.158c1.18 3.004 4.093 5.131 7.503 5.131a8.011 8.011 0 0 0 2.988-.574l.287.287L12.776 13l.867-.869L1.548 0 .682.869zm3.771 3.784l1.058 1.06a1.936 1.936 0 0 0-.055.445c0 1.136.914 2.053 2.046 2.053.15 0 .3-.021.444-.055l1.057 1.06a3.373 3.373 0 0 1-1.5.363 3.417 3.417 0 0 1-3.411-3.421 3.4 3.4 0 0 1 .361-1.505zm2.94-.534l2.149 2.155.014-.11A2.047 2.047 0 0 0 7.51 4.113l-.116.007z"/>
</svg>
