<svg xmlns="http://www.w3.org/2000/svg" width="222" height="38" viewBox="0 0 222 38">
    <g fill="none" fill-rule="evenodd">
        <path fill="#121F5C" d="M53.746 18.448c.72.228 1.284.609 1.692 1.143.408.534.612 1.191.612 1.971 0 1.104-.429 1.953-1.287 2.547-.858.594-2.109.891-3.753.891h-6.516V12.4h6.156c1.536 0 2.715.294 3.537.882.822.588 1.233 1.386 1.233 2.394 0 .612-.147 1.158-.441 1.638-.294.48-.705.858-1.233 1.134zm-6.354-3.852v2.97h2.898c.72 0 1.266-.126 1.638-.378.372-.252.558-.624.558-1.116 0-.492-.186-.861-.558-1.107-.372-.246-.918-.369-1.638-.369h-2.898zm3.402 8.208c.768 0 1.347-.126 1.737-.378.39-.252.585-.642.585-1.17 0-1.044-.774-1.566-2.322-1.566h-3.402v3.114h3.402zm7.272-11.16h2.808V25h-2.808V11.644zm15.174 3.672V25h-2.664v-1.152c-.372.42-.816.741-1.332.963a4.19 4.19 0 0 1-1.674.333c-1.272 0-2.28-.366-3.024-1.098-.744-.732-1.116-1.818-1.116-3.258v-5.472h2.808v5.058c0 1.56.654 2.34 1.962 2.34.672 0 1.212-.219 1.62-.657.408-.438.612-1.089.612-1.953v-4.788h2.808zm12.096 4.878c0 .036-.018.288-.054.756h-7.326c.132.6.444 1.074.936 1.422.492.348 1.104.522 1.836.522.504 0 .951-.075 1.341-.225.39-.15.753-.387 1.089-.711l1.494 1.62c-.912 1.044-2.244 1.566-3.996 1.566-1.092 0-2.058-.213-2.898-.639-.84-.426-1.488-1.017-1.944-1.773-.456-.756-.684-1.614-.684-2.574 0-.948.225-1.803.675-2.565a4.729 4.729 0 0 1 1.854-1.782c.786-.426 1.665-.639 2.637-.639.948 0 1.806.204 2.574.612a4.467 4.467 0 0 1 1.809 1.755c.438.762.657 1.647.657 2.655zm-5.022-2.898c-.636 0-1.17.18-1.602.54-.432.36-.696.852-.792 1.476h4.77c-.096-.612-.36-1.101-.792-1.467-.432-.366-.96-.549-1.584-.549zm14.796-2.52h-4.032V12.4h10.98v2.376h-4.032V25H95.11V14.776zm10.782 1.818a3.123 3.123 0 0 1 1.359-1.062c.57-.24 1.227-.36 1.971-.36v2.592a10.134 10.134 0 0 0-.63-.036c-.804 0-1.434.225-1.89.675-.456.45-.684 1.125-.684 2.025V25h-2.808v-9.684h2.682v1.278zm8.856-1.422c1.5 0 2.652.357 3.456 1.071.804.714 1.206 1.791 1.206 3.231V25h-2.628v-1.206c-.528.9-1.512 1.35-2.952 1.35-.744 0-1.389-.126-1.935-.378s-.963-.6-1.251-1.044a2.717 2.717 0 0 1-.432-1.512c0-.9.339-1.608 1.017-2.124.678-.516 1.725-.774 3.141-.774h2.232c0-.612-.186-1.083-.558-1.413-.372-.33-.93-.495-1.674-.495-.516 0-1.023.081-1.521.243a4.024 4.024 0 0 0-1.269.657l-1.008-1.962c.528-.372 1.161-.66 1.899-.864a8.507 8.507 0 0 1 2.277-.306zm-.216 8.082c.48 0 .906-.111 1.278-.333.372-.222.636-.549.792-.981v-.99h-1.926c-1.152 0-1.728.378-1.728 1.134 0 .36.141.645.423.855.282.21.669.315 1.161.315zm7.416-7.938h2.808V25h-2.808v-9.684zm1.404-1.35c-.516 0-.936-.15-1.26-.45a1.46 1.46 0 0 1-.486-1.116c0-.444.162-.816.486-1.116.324-.3.744-.45 1.26-.45s.936.144 1.26.432c.324.288.486.648.486 1.08 0 .468-.162.855-.486 1.161-.324.306-.744.459-1.26.459zm4.014-2.322h2.808V25h-2.808V11.644z"/>
        <path fill="#38B872" d="M142.13 25.216a10.31 10.31 0 0 1-2.889-.405c-.93-.27-1.677-.621-2.241-1.053l.99-2.196c.54.396 1.182.714 1.926.954s1.488.36 2.232.36c.828 0 1.44-.123 1.836-.369.396-.246.594-.573.594-.981 0-.3-.117-.549-.351-.747a2.66 2.66 0 0 0-.9-.477c-.366-.12-.861-.252-1.485-.396-.96-.228-1.746-.456-2.358-.684a3.831 3.831 0 0 1-1.575-1.098c-.438-.504-.657-1.176-.657-2.016 0-.732.198-1.395.594-1.989.396-.594.993-1.065 1.791-1.413.798-.348 1.773-.522 2.925-.522.804 0 1.59.096 2.358.288.768.192 1.44.468 2.016.828l-.9 2.214c-1.164-.66-2.328-.99-3.492-.99-.816 0-1.419.132-1.809.396-.39.264-.585.612-.585 1.044 0 .432.225.753.675.963.45.21 1.137.417 2.061.621.96.228 1.746.456 2.358.684a3.905 3.905 0 0 1 1.575 1.08c.438.492.657 1.158.657 1.998a3.44 3.44 0 0 1-.603 1.971c-.402.594-1.005 1.065-1.809 1.413-.804.348-1.782.522-2.934.522zm11.754-.072c-1.02 0-1.935-.213-2.745-.639a4.75 4.75 0 0 1-1.899-1.773c-.456-.756-.684-1.614-.684-2.574 0-.96.228-1.818.684-2.574a4.75 4.75 0 0 1 1.899-1.773c.81-.426 1.725-.639 2.745-.639s1.932.213 2.736.639a4.765 4.765 0 0 1 1.89 1.773c.456.756.684 1.614.684 2.574 0 .96-.228 1.818-.684 2.574a4.765 4.765 0 0 1-1.89 1.773c-.804.426-1.716.639-2.736.639zm0-2.304c.72 0 1.311-.243 1.773-.729.462-.486.693-1.137.693-1.953 0-.816-.231-1.467-.693-1.953-.462-.486-1.053-.729-1.773-.729s-1.314.243-1.782.729c-.468.486-.702 1.137-.702 1.953 0 .816.234 1.467.702 1.953.468.486 1.062.729 1.782.729zm10.26-7.308h2.484v2.16h-2.412V25h-2.808v-7.308h-1.494v-2.16h1.494V15.1c0-1.104.327-1.98.981-2.628.654-.648 1.575-.972 2.763-.972.42 0 .819.045 1.197.135.378.09.693.219.945.387l-.738 2.034a1.92 1.92 0 0 0-1.134-.342c-.852 0-1.278.468-1.278 1.404v.414zm10.134 9a2.886 2.886 0 0 1-1.017.459 5.142 5.142 0 0 1-1.269.153c-1.152 0-2.043-.294-2.673-.882-.63-.588-.945-1.452-.945-2.592v-3.978h-1.494v-2.16h1.494v-2.358h2.808v2.358h2.412v2.16h-2.412v3.942c0 .408.105.723.315.945.21.222.507.333.891.333.444 0 .822-.12 1.134-.36l.756 1.98zm16.956-9.216L187.724 25h-2.7l-2.178-6.012-2.25 6.012h-2.7l-3.492-9.684h2.646l2.286 6.552 2.376-6.552h2.376l2.304 6.552 2.358-6.552h2.484zm4.896-.144c1.5 0 2.652.357 3.456 1.071.804.714 1.206 1.791 1.206 3.231V25h-2.628v-1.206c-.528.9-1.512 1.35-2.952 1.35-.744 0-1.389-.126-1.935-.378s-.963-.6-1.251-1.044a2.717 2.717 0 0 1-.432-1.512c0-.9.339-1.608 1.017-2.124.678-.516 1.725-.774 3.141-.774h2.232c0-.612-.186-1.083-.558-1.413-.372-.33-.93-.495-1.674-.495-.516 0-1.023.081-1.521.243a4.024 4.024 0 0 0-1.269.657l-1.008-1.962c.528-.372 1.161-.66 1.899-.864a8.507 8.507 0 0 1 2.277-.306zm-.216 8.082c.48 0 .906-.111 1.278-.333.372-.222.636-.549.792-.981v-.99h-1.926c-1.152 0-1.728.378-1.728 1.134 0 .36.141.645.423.855.282.21.669.315 1.161.315zm10.098-6.66a3.123 3.123 0 0 1 1.359-1.062c.57-.24 1.227-.36 1.971-.36v2.592a10.134 10.134 0 0 0-.63-.036c-.804 0-1.434.225-1.89.675-.456.45-.684 1.125-.684 2.025V25h-2.808v-9.684h2.682v1.278zm14.4 3.6c0 .036-.018.288-.054.756h-7.326c.132.6.444 1.074.936 1.422.492.348 1.104.522 1.836.522.504 0 .951-.075 1.341-.225.39-.15.753-.387 1.089-.711l1.494 1.62c-.912 1.044-2.244 1.566-3.996 1.566-1.092 0-2.058-.213-2.898-.639-.84-.426-1.488-1.017-1.944-1.773-.456-.756-.684-1.614-.684-2.574 0-.948.225-1.803.675-2.565a4.729 4.729 0 0 1 1.854-1.782c.786-.426 1.665-.639 2.637-.639.948 0 1.806.204 2.574.612a4.467 4.467 0 0 1 1.809 1.755c.438.762.657 1.647.657 2.655zm-5.022-2.898c-.636 0-1.17.18-1.602.54-.432.36-.696.852-.792 1.476h4.77c-.096-.612-.36-1.101-.792-1.467-.432-.366-.96-.549-1.584-.549z"/>
        <g fill-rule="nonzero" transform="translate(1)">
            <circle cx="19" cy="19" r="19" fill="#171F5E"/>
            <path fill="#86E29E" d="M19 37.216c10.06 0 18.216-8.155 18.216-18.216C37.216 8.94 29.061.784 19 .784 8.94.784.784 8.939.784 19 .784 29.06 8.939 37.216 19 37.216zM19 38C8.507 38 0 29.493 0 19S8.507 0 19 0s19 8.507 19 19-8.507 19-19 19z"/>
            <circle cx="19" cy="19" r="13" fill="#5AC775"/>
            <path fill="#171F5E" d="M26.652 9.482s-.54 3.029-14.3 7.067c0 0-3.61 1.23-.806 3.156 0 0 15.928 6.89 17.424 7.928 0 0-4.15 5.223-10.394 4.223 0 0-4.375-5.298-11.853-8.89 0 0-5.01-4.594 2.057-7.113C15.846 13.334 20.595 13.667 26.315 9"/>
            <path fill="#3FAA58" d="M19 31.232c6.756 0 12.232-5.476 12.232-12.232 0-6.756-5.476-12.232-12.232-12.232-6.756 0-12.232 5.476-12.232 12.232 0 6.756 5.476 12.232 12.232 12.232zM19 32c-7.18 0-13-5.82-13-13S11.82 6 19 6s13 5.82 13 13-5.82 13-13 13z"/>
        </g>
    </g>
</svg>
